<svg width="4086" height="1656" viewBox="0 0 4086 1656" fill="none" xmlns="http://www.w3.org/2000/svg">
<path fill-rule="evenodd" clip-rule="evenodd" d="M2580.23 1031.41C2570.59 997.494 2563.16 955.144 2563.16 905.047V418.805C2563.16 368.707 2570.54 326.358 2580.18 292.442C2592.03 250.854 2568.35 199.949 2528.71 182.641C2519.49 178.607 2512.04 175.06 2502.04 170.052C2483.69 160.842 2467.68 149.517 2450.78 137.536C2411.15 109.512 2341.93 77.9399 2250.47 65.5334C2191.24 57.5415 2137.88 39.1374 2095.55 0.700275L2094.85 0L2094.06 0.791607C2051.73 39.1983 1998.39 57.6025 1939.17 65.5791C1847.73 77.9856 1778.4 109.557 1738.77 137.582C1721.87 149.562 1705.86 160.888 1687.51 170.098C1677.51 175.106 1670.06 178.668 1660.85 182.687C1621.2 199.995 1597.52 250.899 1609.37 292.488C1619.01 326.404 1626.41 368.753 1626.41 418.866V905.092C1626.41 955.205 1618.96 997.539 1609.32 1031.46C1597.52 1073.06 1620.09 1126.25 1659.73 1143.55C1668.94 1147.59 1676.43 1151.14 1686.4 1156.14C1704.74 1165.35 1720.74 1176.68 1737.64 1188.66C1777.28 1216.68 1820.95 1248.26 1912.39 1260.66C1971.68 1268.72 2051.87 1284.76 2094.21 1323.3C2094.56 1323.64 2094.76 1324.1 2094.76 1324.1C2094.97 1323.97 2095.2 1323.44 2095.43 1323.26C2137.78 1284.7 2192.3 1268.65 2251.6 1260.62C2343.04 1248.21 2412.27 1216.64 2451.91 1188.61C2468.81 1176.63 2484.81 1165.31 2503.15 1156.1C2513.12 1151.09 2520.61 1147.53 2529.83 1143.51C2569.46 1126.2 2592.03 1073 2580.23 1031.41ZM2474.13 947.244C2474.13 1064.56 2381.56 1199.95 2220.57 1199.95C2144.51 1199.95 2094.82 1165.93 2094.82 1165.93V1165.99C2094.82 1165.99 2044.83 1199.25 1968.77 1199.25C1816.44 1199.25 1717.02 1070.9 1717.02 946.985V378.998C1717.02 229.786 1839.51 125.8 1968.77 125.8C2046.03 125.8 2094.82 159.655 2094.82 159.655V159.594C2094.82 159.594 2143.79 125.8 2221.05 125.8C2350.32 125.8 2474.13 229.74 2474.13 378.952V947.244ZM2154.54 903.555L2154.39 889.367C2154.39 883.08 2149.29 877.981 2143 877.981H2049.22C2041.36 877.981 2034.98 871.602 2034.98 863.748L2035.13 517.128C2035.13 510.841 2030.02 505.742 2023.74 505.742H2011.1C2004.83 505.742 1999.71 510.841 1999.71 517.128V880.782C1999.71 899.612 2015.03 914.941 2033.88 914.941H2143.15C2149.43 914.941 2154.54 909.827 2154.54 903.555ZM2035.1 420.541V434.637C2035.1 440.908 2040.22 446.023 2046.49 446.023H2140.05C2147.99 446.023 2154.45 452.478 2154.45 460.424V806.967C2154.45 813.239 2159.57 818.354 2165.84 818.354H2180.06C2186.34 818.354 2191.45 813.239 2191.45 806.967V443.314C2191.45 424.468 2176.12 409.154 2157.28 409.154H2046.49C2040.22 409.154 2035.1 414.254 2035.1 420.541ZM2046.52 1011.53H1976.89C1954.23 1011.53 1888.85 985.072 1888.85 917.331V406.764C1888.85 352.724 1934.91 312.566 1985.32 312.566H2046.52C2052.79 312.566 2057.91 307.467 2057.91 301.18V264.25C2057.91 257.963 2052.79 252.863 2046.52 252.863H1998.19C1917.15 252.863 1841.86 318.184 1841.86 406.764V917.331C1841.86 998.894 1910.26 1071.22 1998.19 1071.22H2046.52C2052.79 1071.22 2057.91 1066.12 2057.91 1059.83V1022.92C2057.91 1016.64 2052.79 1011.53 2046.52 1011.53ZM2191.45 252.863H2143.12C2136.85 252.863 2131.73 257.963 2131.73 264.25V301.18C2131.73 307.467 2136.85 312.566 2143.12 312.566H2204.32C2254.75 312.566 2300.8 352.724 2300.8 406.764V917.331C2300.8 985.072 2235.41 1011.53 2212.75 1011.53H2143.12C2136.85 1011.53 2131.73 1016.64 2131.73 1022.92V1059.83C2131.73 1066.12 2136.85 1071.22 2143.12 1071.22H2191.45C2279.39 1071.22 2347.79 998.894 2347.79 917.331V406.764C2347.79 318.184 2272.49 252.863 2191.45 252.863ZM2812.59 963.517V746.701C2812.59 713.531 2797.24 712.541 2771.49 707.594V699.176H2903.71V707.594C2877.96 712.541 2850.72 713.531 2850.72 746.701V958.569C2850.72 992.714 2859.64 996.185 2897.27 996.185H2938.37C2977.48 996.185 2995.31 980.338 3014.14 936.299H3024.54L3004.22 1011.04H2771.49V1002.62C2797.24 997.676 2812.59 996.687 2812.59 963.517ZM3139.22 963.517V746.701C3139.22 713.531 3123.88 712.541 3098.13 707.594V699.176H3218.45V707.594C3192.7 712.541 3177.35 713.531 3177.35 746.701V963.517C3177.35 996.687 3192.7 997.676 3218.45 1002.62V1011.04H3098.13V1002.62C3123.88 997.676 3139.22 996.687 3139.22 963.517ZM3371.94 759.077L3362.53 963.517C3361.04 996.687 3379.35 997.676 3407.59 1002.62V1011.04H3304.1V1002.62C3329.85 997.676 3344.21 996.687 3345.69 963.517L3356.09 746.701C3357.58 713.531 3340.24 712.541 3314.5 707.594V699.176H3388.28C3390.26 710.562 3397.18 722.938 3403.63 737.293L3499.69 958.569L3584.86 737.293C3590.31 722.938 3596.25 710.562 3598.23 699.176H3680.42V707.594C3654.67 712.541 3638.33 713.531 3639.83 746.701L3650.21 963.517C3651.7 996.687 3665.07 997.676 3690.82 1002.62V1011.04H3570.5V1002.62C3596.25 997.676 3613.58 996.687 3612.08 963.517L3602.69 738.77L3495.73 1011.04H3480.87L3371.94 759.077ZM3792.28 974.903L3908.16 695.705H3924.98L4045.31 973.427C4055.71 997.174 4059.68 999.168 4085.43 1002.62V1011.04H3971.04V1002.62C3992.33 999.168 4012.14 997.174 4001.74 973.427L3974.01 908.578H3837.84L3810.61 974.416C3801.2 997.174 3819.52 999.168 3840.81 1002.62V1011.04H3750.19V1002.62C3775.94 999.168 3782.88 997.174 3792.28 974.903ZM3967.57 894.223L3904.18 746.701L3843.78 894.223H3967.57ZM0 857.567C0 767.236 62.8114 699.602 166.705 699.602C209.706 699.602 241.607 711.202 258.508 721.827C258.508 742.591 259.483 763.37 261.904 787.041H247.393C235.805 736.319 199.565 714.581 154.143 714.581C90.357 714.581 43.001 758.544 43.001 842.588C43.001 940.652 105.812 996.687 177.821 996.687C199.565 996.687 239.185 991.374 258.036 970.123L266.244 978.328C246.921 999.579 209.234 1017.47 160.904 1017.47C68.6128 1017.47 0 952.739 0 857.567ZM474.412 1017.47C389.841 1017.47 321.472 946.422 321.472 858.526C321.472 770.646 389.841 699.602 474.412 699.602C558.982 699.602 627.336 770.646 627.336 858.526C627.336 946.422 558.982 1017.47 474.412 1017.47ZM481.416 1002.49C536.507 1002.49 586.269 954.185 586.269 871.572C586.269 780.282 529.731 714.581 466.92 714.581C412.316 714.581 362.554 763.857 362.554 845.008C362.554 937.76 419.077 1002.49 481.416 1002.49ZM673.748 987.036L669.881 926.16H679.55C690.178 969.149 720.617 1003.93 764.105 1003.93C799.858 1003.93 827.891 977.841 827.891 942.098C827.891 902.017 795.99 884.618 754.923 863.854C717.236 844.521 676.169 819.404 676.169 771.574C676.169 734.386 701.781 699.602 766.526 699.602C814.354 699.602 834.652 718.448 849.635 728.114L851.082 789.933H842.387C832.718 749.837 808.568 713.135 764.105 713.135C728.352 713.135 710.476 734.873 710.476 761.923C710.476 793.8 737.047 813.132 780.535 835.342C813.395 852.254 865.578 877.859 865.578 932.919C865.578 985.102 816.775 1017.47 764.105 1017.47C721.576 1017.47 687.27 995.728 673.748 987.036ZM1025.32 965.283V719.894H991.49C937.86 719.894 926.257 742.591 919.984 785.594H912.248L916.116 702.509L938.348 707.335H1149.5L1171.73 702.509L1175.58 785.594H1167.86C1161.58 742.591 1149.99 719.894 1097.79 719.894H1062.52V965.283C1062.52 997.646 1077.99 998.62 1112.29 1003.45V1011.67H975.547V1003.45C1009.85 998.62 1025.32 997.646 1025.32 965.283ZM1203.21 976.395L1316.27 703.956H1332.7L1450.11 974.949C1460.27 998.133 1464.14 1000.07 1489.26 1003.45V1011.67H1377.65V1003.45C1398.42 1000.07 1417.74 998.133 1407.6 974.949L1380.54 911.668H1247.65L1221.08 975.923C1211.9 998.133 1229.78 1000.07 1250.56 1003.45V1011.67H1162.14V1003.45C1187.26 1000.07 1194.02 998.133 1203.21 976.395ZM1374.25 897.664L1312.4 753.703L1253.45 897.664H1374.25ZM1225.21 1628.33L1151.27 1457.67H1140.93L1069.73 1629.25C1063.94 1642.93 1059.68 1644.15 1043.86 1646.28V1651.46H1099.54V1646.28C1086.46 1644.15 1075.19 1642.93 1080.98 1628.94L1097.71 1588.48H1181.4L1198.44 1628.33C1204.83 1642.93 1192.65 1644.15 1179.57 1646.28V1651.46H1249.86V1646.28C1234.04 1644.15 1231.6 1642.93 1225.21 1628.33ZM1101.37 1579.65L1138.49 1489L1177.44 1579.65H1101.37ZM1389.23 1459.81H1319.54V1464.98C1335.36 1468.03 1344.8 1468.63 1344.8 1489V1622.25C1344.8 1642.63 1335.36 1643.24 1319.54 1646.28V1651.46H1389.23C1448.57 1651.46 1497.56 1623.77 1497.56 1554.41C1497.56 1486.58 1447.34 1459.81 1389.23 1459.81ZM1397.75 1641.72C1374.62 1641.72 1368.24 1633.51 1368.24 1612.52V1469.53H1386.19C1450.69 1469.53 1471.08 1505.44 1471.08 1557.46C1471.08 1610.39 1450.99 1641.72 1397.75 1641.72ZM1719.48 1464.98C1732.57 1468.03 1743.82 1468.31 1738.05 1482.02L1680.54 1621.94L1620.59 1482.62C1614.2 1468.31 1626.38 1468.03 1639.46 1464.98V1459.81H1569.16V1464.98C1584.99 1468.03 1587.73 1468.63 1593.81 1482.62L1667.75 1653.59H1678.1L1749.31 1481.71C1754.79 1467.71 1759.36 1468.03 1775.18 1464.98V1459.81H1719.48V1464.98ZM1934.24 1655.11C1880.97 1655.11 1837.93 1610.37 1837.93 1555.02C1837.93 1499.69 1880.97 1454.95 1934.24 1454.95C1987.5 1454.95 2030.55 1499.69 2030.55 1555.02C2030.55 1610.37 1987.5 1655.11 1934.24 1655.11ZM1938.65 1645.69C1899.4 1645.69 1863.8 1604.92 1863.8 1546.51C1863.8 1495.41 1895.13 1464.37 1929.52 1464.37C1969.08 1464.37 2004.68 1505.75 2004.68 1563.24C2004.68 1615.26 1973.34 1645.69 1938.65 1645.69ZM2214.14 1642.04C2168.79 1642.04 2129.23 1606.75 2129.23 1544.99C2129.23 1492.05 2159.06 1464.37 2199.23 1464.37C2227.83 1464.37 2250.65 1478.06 2257.95 1510.01H2267.08C2265.56 1495.09 2264.95 1482.01 2264.95 1468.94C2254.31 1462.24 2234.22 1454.95 2207.14 1454.95C2141.72 1454.95 2102.16 1497.53 2102.16 1554.41C2102.16 1614.35 2145.36 1655.11 2203.48 1655.11C2233.9 1655.11 2257.64 1643.86 2269.83 1630.47L2264.65 1625.31C2252.79 1638.69 2227.83 1642.04 2214.14 1642.04ZM2499.33 1628.33L2425.38 1457.67H2415.04L2343.83 1629.25C2338.06 1642.95 2333.79 1644.17 2317.97 1646.3V1651.46H2373.66V1646.3C2360.58 1644.17 2349.31 1642.95 2355.1 1628.94L2371.83 1588.48H2455.52L2472.56 1628.33C2478.94 1642.95 2466.77 1644.17 2453.69 1646.3V1651.46H2523.98V1646.3C2508.16 1644.17 2505.72 1642.95 2499.33 1628.33ZM2375.49 1579.67L2412.61 1489.02L2451.56 1579.67H2375.49ZM2693.79 1642.04C2648.44 1642.04 2608.88 1606.75 2608.88 1544.99C2608.88 1492.05 2638.71 1464.37 2678.88 1464.37C2707.48 1464.37 2730.3 1478.06 2737.6 1510.01H2746.73C2745.21 1495.09 2744.6 1482.01 2744.6 1468.94C2733.96 1462.24 2713.87 1454.95 2686.79 1454.95C2621.37 1454.95 2581.81 1497.53 2581.81 1554.41C2581.81 1614.35 2625.01 1655.11 2683.13 1655.11C2713.57 1655.11 2737.29 1643.86 2749.48 1630.47L2744.3 1625.31C2732.44 1638.69 2707.48 1642.04 2693.79 1642.04ZM2821.07 1464.98C2836.89 1468.03 2846.33 1468.63 2846.33 1489.02V1622.26C2846.33 1642.64 2836.89 1643.25 2821.07 1646.3V1651.46H2895.03V1646.3C2879.19 1643.25 2869.77 1642.64 2869.77 1622.26V1489.02C2869.77 1468.63 2879.19 1468.03 2895.03 1464.98V1459.81H2821.07V1464.98ZM3121.07 1628.35L3047.12 1457.69H3036.78L2965.58 1629.26C2959.79 1642.95 2955.53 1644.17 2939.71 1646.3V1651.47H2995.39V1646.3C2982.31 1644.17 2971.06 1642.95 2976.83 1628.96L2993.56 1588.5H3077.25L3094.29 1628.35C3100.69 1642.95 3088.5 1644.17 3075.42 1646.3V1651.47H3145.71V1646.3C3129.89 1644.17 3127.45 1642.95 3121.07 1628.35ZM2997.22 1579.67L3034.34 1489.02L3073.29 1579.67H2997.22Z" fill="#D9D9D9"/>
</svg>
